<mxfile host="app.diagrams.net" modified="2022-05-30T01:34:46.781Z" agent="5.0 (Windows)" etag="XKmj0mjXhIPoKAXSIodi" version="17.4.0" type="github">
  <diagram id="C5RBs43oDa-KdzZeNtuy" name="Page-1">
    <mxGraphModel dx="1108" dy="1594" grid="1" gridSize="10" guides="1" tooltips="1" connect="1" arrows="1" fold="1" page="1" pageScale="1" pageWidth="827" pageHeight="1169" math="0" shadow="0">
      <root>
        <mxCell id="WIyWlLk6GJQsqaUBKTNV-0" />
        <mxCell id="WIyWlLk6GJQsqaUBKTNV-1" parent="WIyWlLk6GJQsqaUBKTNV-0" />
        <mxCell id="NjkWzPEH9ht996TZmnL9-2" value="" style="edgeStyle=orthogonalEdgeStyle;rounded=0;orthogonalLoop=1;jettySize=auto;html=1;" edge="1" parent="WIyWlLk6GJQsqaUBKTNV-1" source="NjkWzPEH9ht996TZmnL9-0" target="NjkWzPEH9ht996TZmnL9-1">
          <mxGeometry relative="1" as="geometry" />
        </mxCell>
        <mxCell id="NjkWzPEH9ht996TZmnL9-0" value="Загрузка задания" style="rounded=0;whiteSpace=wrap;html=1;" vertex="1" parent="WIyWlLk6GJQsqaUBKTNV-1">
          <mxGeometry x="294" y="120" width="120" height="60" as="geometry" />
        </mxCell>
        <mxCell id="NjkWzPEH9ht996TZmnL9-4" value="" style="edgeStyle=orthogonalEdgeStyle;rounded=0;orthogonalLoop=1;jettySize=auto;html=1;" edge="1" parent="WIyWlLk6GJQsqaUBKTNV-1" source="NjkWzPEH9ht996TZmnL9-1" target="NjkWzPEH9ht996TZmnL9-3">
          <mxGeometry relative="1" as="geometry">
            <Array as="points">
              <mxPoint x="160" y="335" />
              <mxPoint x="160" y="660" />
            </Array>
          </mxGeometry>
        </mxCell>
        <mxCell id="NjkWzPEH9ht996TZmnL9-5" value="&lt;div&gt;Да&lt;/div&gt;" style="edgeLabel;html=1;align=center;verticalAlign=middle;resizable=0;points=[];" vertex="1" connectable="0" parent="NjkWzPEH9ht996TZmnL9-4">
          <mxGeometry x="-0.1486" y="1" relative="1" as="geometry">
            <mxPoint as="offset" />
          </mxGeometry>
        </mxCell>
        <mxCell id="NjkWzPEH9ht996TZmnL9-7" value="" style="edgeStyle=orthogonalEdgeStyle;rounded=0;orthogonalLoop=1;jettySize=auto;html=1;" edge="1" parent="WIyWlLk6GJQsqaUBKTNV-1" source="NjkWzPEH9ht996TZmnL9-1" target="NjkWzPEH9ht996TZmnL9-6">
          <mxGeometry relative="1" as="geometry">
            <Array as="points">
              <mxPoint x="640" y="335" />
            </Array>
          </mxGeometry>
        </mxCell>
        <mxCell id="NjkWzPEH9ht996TZmnL9-23" value="Нет" style="edgeLabel;html=1;align=center;verticalAlign=middle;resizable=0;points=[];" vertex="1" connectable="0" parent="NjkWzPEH9ht996TZmnL9-7">
          <mxGeometry x="-0.1073" y="3" relative="1" as="geometry">
            <mxPoint as="offset" />
          </mxGeometry>
        </mxCell>
        <mxCell id="NjkWzPEH9ht996TZmnL9-1" value="Существует репозиторий задания?" style="rhombus;whiteSpace=wrap;html=1;rounded=0;" vertex="1" parent="WIyWlLk6GJQsqaUBKTNV-1">
          <mxGeometry x="246" y="250" width="216" height="170" as="geometry" />
        </mxCell>
        <mxCell id="NjkWzPEH9ht996TZmnL9-14" value="" style="edgeStyle=orthogonalEdgeStyle;rounded=0;orthogonalLoop=1;jettySize=auto;html=1;" edge="1" parent="WIyWlLk6GJQsqaUBKTNV-1" source="NjkWzPEH9ht996TZmnL9-3" target="NjkWzPEH9ht996TZmnL9-13">
          <mxGeometry relative="1" as="geometry" />
        </mxCell>
        <mxCell id="NjkWzPEH9ht996TZmnL9-3" value="Отправка файла работы" style="rounded=0;whiteSpace=wrap;html=1;" vertex="1" parent="WIyWlLk6GJQsqaUBKTNV-1">
          <mxGeometry x="280" y="700" width="120" height="60" as="geometry" />
        </mxCell>
        <mxCell id="NjkWzPEH9ht996TZmnL9-9" value="" style="edgeStyle=orthogonalEdgeStyle;rounded=0;orthogonalLoop=1;jettySize=auto;html=1;" edge="1" parent="WIyWlLk6GJQsqaUBKTNV-1" source="NjkWzPEH9ht996TZmnL9-6" target="NjkWzPEH9ht996TZmnL9-8">
          <mxGeometry relative="1" as="geometry" />
        </mxCell>
        <mxCell id="NjkWzPEH9ht996TZmnL9-6" value="Создание репозитория" style="whiteSpace=wrap;html=1;rounded=0;" vertex="1" parent="WIyWlLk6GJQsqaUBKTNV-1">
          <mxGeometry x="580" y="390" width="120" height="60" as="geometry" />
        </mxCell>
        <mxCell id="NjkWzPEH9ht996TZmnL9-11" value="" style="edgeStyle=orthogonalEdgeStyle;rounded=0;orthogonalLoop=1;jettySize=auto;html=1;" edge="1" parent="WIyWlLk6GJQsqaUBKTNV-1" source="NjkWzPEH9ht996TZmnL9-8" target="NjkWzPEH9ht996TZmnL9-10">
          <mxGeometry relative="1" as="geometry" />
        </mxCell>
        <mxCell id="NjkWzPEH9ht996TZmnL9-8" value="Отправка тестовых данных" style="whiteSpace=wrap;html=1;rounded=0;" vertex="1" parent="WIyWlLk6GJQsqaUBKTNV-1">
          <mxGeometry x="580" y="490" width="120" height="60" as="geometry" />
        </mxCell>
        <mxCell id="NjkWzPEH9ht996TZmnL9-12" style="edgeStyle=orthogonalEdgeStyle;rounded=0;orthogonalLoop=1;jettySize=auto;html=1;entryX=0.5;entryY=0;entryDx=0;entryDy=0;" edge="1" parent="WIyWlLk6GJQsqaUBKTNV-1" source="NjkWzPEH9ht996TZmnL9-10" target="NjkWzPEH9ht996TZmnL9-3">
          <mxGeometry relative="1" as="geometry">
            <Array as="points">
              <mxPoint x="640" y="660" />
              <mxPoint x="340" y="660" />
            </Array>
          </mxGeometry>
        </mxCell>
        <mxCell id="NjkWzPEH9ht996TZmnL9-10" value="Отправка конфигурации GitHub Actions" style="rounded=0;whiteSpace=wrap;html=1;" vertex="1" parent="WIyWlLk6GJQsqaUBKTNV-1">
          <mxGeometry x="580" y="585" width="120" height="60" as="geometry" />
        </mxCell>
        <mxCell id="NjkWzPEH9ht996TZmnL9-15" style="edgeStyle=orthogonalEdgeStyle;rounded=0;orthogonalLoop=1;jettySize=auto;html=1;entryX=0;entryY=0.5;entryDx=0;entryDy=0;" edge="1" parent="WIyWlLk6GJQsqaUBKTNV-1" source="NjkWzPEH9ht996TZmnL9-13" target="NjkWzPEH9ht996TZmnL9-18">
          <mxGeometry relative="1" as="geometry">
            <mxPoint x="70" y="70" as="targetPoint" />
            <Array as="points">
              <mxPoint x="50" y="850" />
              <mxPoint x="50" y="40" />
            </Array>
          </mxGeometry>
        </mxCell>
        <mxCell id="NjkWzPEH9ht996TZmnL9-13" value="Получение статуса" style="rounded=0;whiteSpace=wrap;html=1;" vertex="1" parent="WIyWlLk6GJQsqaUBKTNV-1">
          <mxGeometry x="280" y="820" width="120" height="60" as="geometry" />
        </mxCell>
        <mxCell id="NjkWzPEH9ht996TZmnL9-24" value="" style="edgeStyle=orthogonalEdgeStyle;rounded=0;orthogonalLoop=1;jettySize=auto;html=1;" edge="1" parent="WIyWlLk6GJQsqaUBKTNV-1" source="NjkWzPEH9ht996TZmnL9-17" target="NjkWzPEH9ht996TZmnL9-18">
          <mxGeometry relative="1" as="geometry" />
        </mxCell>
        <mxCell id="NjkWzPEH9ht996TZmnL9-17" value="Студент приступил к работе" style="ellipse;whiteSpace=wrap;html=1;" vertex="1" parent="WIyWlLk6GJQsqaUBKTNV-1">
          <mxGeometry x="276" y="-100" width="156" height="80" as="geometry" />
        </mxCell>
        <mxCell id="NjkWzPEH9ht996TZmnL9-19" value="Нет" style="edgeStyle=orthogonalEdgeStyle;rounded=0;orthogonalLoop=1;jettySize=auto;html=1;" edge="1" parent="WIyWlLk6GJQsqaUBKTNV-1" source="NjkWzPEH9ht996TZmnL9-18" target="NjkWzPEH9ht996TZmnL9-0">
          <mxGeometry relative="1" as="geometry" />
        </mxCell>
        <mxCell id="NjkWzPEH9ht996TZmnL9-22" value="Да" style="edgeStyle=orthogonalEdgeStyle;rounded=0;orthogonalLoop=1;jettySize=auto;html=1;" edge="1" parent="WIyWlLk6GJQsqaUBKTNV-1" source="NjkWzPEH9ht996TZmnL9-18" target="NjkWzPEH9ht996TZmnL9-21">
          <mxGeometry relative="1" as="geometry" />
        </mxCell>
        <mxCell id="NjkWzPEH9ht996TZmnL9-18" value="Статус&amp;nbsp; &quot;success&quot;?" style="rhombus;whiteSpace=wrap;html=1;" vertex="1" parent="WIyWlLk6GJQsqaUBKTNV-1">
          <mxGeometry x="274" width="160" height="80" as="geometry" />
        </mxCell>
        <mxCell id="NjkWzPEH9ht996TZmnL9-21" value="Работа выполнена" style="ellipse;whiteSpace=wrap;html=1;" vertex="1" parent="WIyWlLk6GJQsqaUBKTNV-1">
          <mxGeometry x="534" y="10" width="120" height="60" as="geometry" />
        </mxCell>
      </root>
    </mxGraphModel>
  </diagram>
</mxfile>
